<svg xmlns="http://www.w3.org/2000/svg" viewBox="0 0 24 24" width="24" height="24" shape-rendering="crispEdges">
  <rect width="24" height="24" fill="none"/>
  <path d="M12,2 C6.48,2 2,6.48 2,12 C2,17.52 6.48,22 12,22 C17.52,22 22,17.52 22,12 C22,6.48 17.52,2 12,2 Z M6,12 C6,11 6.9,10 8,10 C9.1,10 10,11 10,12 C10,13 9.1,14 8,14 C6.9,14 6,13 6,12 Z M12,6 C12,5 12.9,4 14,4 C15.1,4 16,5 16,6 C16,7 15.1,8 14,8 C12.9,8 12,7 12,6 Z M18,12 C18,11 18.9,10 20,10 C21.1,10 22,11 22,12 C22,13 21.1,14 20,14 C18.9,14 18,13 18,12 Z" fill="#ff00ff"/>
</svg>